<svg width="25" height="25" viewBox="0 0 25 25" fill="none" xmlns="http://www.w3.org/2000/svg">
<path d="M23.7493 17.9699V21.4323C23.7506 21.7538 23.6846 22.0719 23.5556 22.3664C23.4266 22.661 23.2373 22.9253 23 23.1426C22.7627 23.3599 22.4825 23.5254 22.1774 23.6283C21.8723 23.7313 21.549 23.7696 21.2283 23.7406C17.6697 23.3547 14.2515 22.1412 11.2482 20.1974C8.4541 18.4254 6.08515 16.0612 4.30964 13.2726C2.35524 10.2616 1.13898 6.83359 0.759386 3.26614C0.730488 2.94698 0.768493 2.62532 0.870983 2.32162C0.973472 2.01792 1.1382 1.73885 1.35468 1.50218C1.57116 1.2655 1.83464 1.0764 2.12836 0.946919C2.42208 0.817438 2.73959 0.750414 3.06069 0.750112H6.52999C7.09122 0.744599 7.6353 0.942944 8.06083 1.30818C8.48637 1.67341 8.76431 2.18061 8.84286 2.73524C8.98929 3.84329 9.26085 4.93125 9.65236 5.97838C9.80795 6.39147 9.84163 6.84042 9.74939 7.27203C9.65716 7.70364 9.44289 8.09982 9.13197 8.41362L7.6633 9.87938C9.30954 12.7688 11.7067 15.1612 14.6019 16.8042L16.0706 15.3385C16.385 15.0282 16.782 14.8143 17.2144 14.7223C17.6469 14.6302 18.0967 14.6638 18.5106 14.8191C19.5598 15.2098 20.65 15.4809 21.7602 15.627C22.322 15.7061 22.835 15.9885 23.2018 16.4205C23.5685 16.8525 23.7634 17.4039 23.7493 17.9699Z" stroke="white" stroke-width="1.5" stroke-linecap="round" stroke-linejoin="round"/>
</svg>
