<svg width="144" height="144" viewBox="0 0 144 144" fill="none" xmlns="http://www.w3.org/2000/svg">
<rect width="144" height="143.222" fill="white"/>
<path d="M16.5918 11.71H11.7737V16.502H16.5918V11.71Z" fill="black"/>
<path d="M21.4099 11.71H16.5918V16.502H21.4099V11.71Z" fill="black"/>
<path d="M26.228 11.71H21.4099V16.502H26.228V11.71Z" fill="black"/>
<path d="M31.0461 11.71H26.228V16.502H31.0461V11.71Z" fill="black"/>
<path d="M35.8642 11.71H31.0461V16.502H35.8642V11.71Z" fill="black"/>
<path d="M40.6824 11.71H35.8642V16.502H40.6824V11.71Z" fill="black"/>
<path d="M45.5005 11.71H40.6824V16.502H45.5005V11.71Z" fill="black"/>
<path d="M59.9548 11.71H55.1367V16.502H59.9548V11.71Z" fill="black"/>
<path d="M69.591 11.71H64.7729V16.502H69.591V11.71Z" fill="black"/>
<path d="M74.4092 11.71H69.591V16.502H74.4092V11.71Z" fill="black"/>
<path d="M79.2273 11.71H74.4092V16.502H79.2273V11.71Z" fill="black"/>
<path d="M93.6816 11.71H88.8635V16.502H93.6816V11.71Z" fill="black"/>
<path d="M103.318 11.71H98.4997V16.502H103.318V11.71Z" fill="black"/>
<path d="M108.136 11.71H103.318V16.502H108.136V11.71Z" fill="black"/>
<path d="M112.954 11.71H108.136V16.502H112.954V11.71Z" fill="black"/>
<path d="M117.772 11.71H112.954V16.502H117.772V11.71Z" fill="black"/>
<path d="M122.59 11.71H117.772V16.502H122.59V11.71Z" fill="black"/>
<path d="M127.408 11.71H122.59V16.502H127.408V11.71Z" fill="black"/>
<path d="M132.227 11.71H127.408V16.502H132.227V11.71Z" fill="black"/>
<path d="M16.5918 16.502H11.7737V21.2941H16.5918V16.502Z" fill="black"/>
<path d="M45.5005 16.502H40.6824V21.2941H45.5005V16.502Z" fill="black"/>
<path d="M79.2273 16.502H74.4092V21.2941H79.2273V16.502Z" fill="black"/>
<path d="M84.0454 16.502H79.2273V21.2941H84.0454V16.502Z" fill="black"/>
<path d="M88.8635 16.502H84.0454V21.2941H88.8635V16.502Z" fill="black"/>
<path d="M103.318 16.502H98.4997V21.2941H103.318V16.502Z" fill="black"/>
<path d="M132.227 16.502H127.408V21.2941H132.227V16.502Z" fill="black"/>
<path d="M16.5918 21.2941H11.7737V26.0862H16.5918V21.2941Z" fill="black"/>
<path d="M26.228 21.2941H21.4099V26.0862H26.228V21.2941Z" fill="black"/>
<path d="M31.0461 21.2941H26.228V26.0862H31.0461V21.2941Z" fill="black"/>
<path d="M35.8642 21.2941H31.0461V26.0862H35.8642V21.2941Z" fill="black"/>
<path d="M45.5005 21.2941H40.6824V26.0862H45.5005V21.2941Z" fill="black"/>
<path d="M55.1367 21.2941H50.3186V26.0862H55.1367V21.2941Z" fill="black"/>
<path d="M59.9548 21.2941H55.1367V26.0862H59.9548V21.2941Z" fill="black"/>
<path d="M64.7729 21.2941H59.9548V26.0862H64.7729V21.2941Z" fill="black"/>
<path d="M74.4092 21.2941H69.591V26.0862H74.4092V21.2941Z" fill="black"/>
<path d="M84.0454 21.2941H79.2273V26.0862H84.0454V21.2941Z" fill="black"/>
<path d="M88.8635 21.2941H84.0454V26.0862H88.8635V21.2941Z" fill="black"/>
<path d="M93.6816 21.2941H88.8635V26.0862H93.6816V21.2941Z" fill="black"/>
<path d="M103.318 21.2941H98.4997V26.0862H103.318V21.2941Z" fill="black"/>
<path d="M112.954 21.2941H108.136V26.0862H112.954V21.2941Z" fill="black"/>
<path d="M117.772 21.2941H112.954V26.0862H117.772V21.2941Z" fill="black"/>
<path d="M122.59 21.2941H117.772V26.0862H122.59V21.2941Z" fill="black"/>
<path d="M132.227 21.2941H127.408V26.0862H132.227V21.2941Z" fill="black"/>
<path d="M16.5918 26.0862H11.7737V30.8782H16.5918V26.0862Z" fill="black"/>
<path d="M26.228 26.0862H21.4099V30.8782H26.228V26.0862Z" fill="black"/>
<path d="M31.0461 26.0862H26.228V30.8782H31.0461V26.0862Z" fill="black"/>
<path d="M35.8642 26.0862H31.0461V30.8782H35.8642V26.0862Z" fill="black"/>
<path d="M45.5005 26.0862H40.6824V30.8782H45.5005V26.0862Z" fill="black"/>
<path d="M55.1367 26.0862H50.3186V30.8782H55.1367V26.0862Z" fill="black"/>
<path d="M79.2273 26.0862H74.4092V30.8782H79.2273V26.0862Z" fill="black"/>
<path d="M88.8635 26.0862H84.0454V30.8782H88.8635V26.0862Z" fill="black"/>
<path d="M93.6816 26.0862H88.8635V30.8782H93.6816V26.0862Z" fill="black"/>
<path d="M103.318 26.0862H98.4997V30.8782H103.318V26.0862Z" fill="black"/>
<path d="M112.954 26.0862H108.136V30.8782H112.954V26.0862Z" fill="black"/>
<path d="M117.772 26.0862H112.954V30.8782H117.772V26.0862Z" fill="black"/>
<path d="M122.59 26.0862H117.772V30.8782H122.59V26.0862Z" fill="black"/>
<path d="M132.227 26.0862H127.408V30.8782H132.227V26.0862Z" fill="black"/>
<path d="M16.5918 30.8782H11.7737V35.6703H16.5918V30.8782Z" fill="black"/>
<path d="M26.228 30.8782H21.4099V35.6703H26.228V30.8782Z" fill="black"/>
<path d="M31.0461 30.8782H26.228V35.6703H31.0461V30.8782Z" fill="black"/>
<path d="M35.8642 30.8782H31.0461V35.6703H35.8642V30.8782Z" fill="black"/>
<path d="M45.5005 30.8782H40.6824V35.6703H45.5005V30.8782Z" fill="black"/>
<path d="M55.1367 30.8782H50.3186V35.6703H55.1367V30.8782Z" fill="black"/>
<path d="M64.7729 30.8782H59.9548V35.6703H64.7729V30.8782Z" fill="black"/>
<path d="M79.2273 30.8782H74.4092V35.6703H79.2273V30.8782Z" fill="black"/>
<path d="M93.6816 30.8782H88.8635V35.6703H93.6816V30.8782Z" fill="black"/>
<path d="M103.318 30.8782H98.4997V35.6703H103.318V30.8782Z" fill="black"/>
<path d="M112.954 30.8782H108.136V35.6703H112.954V30.8782Z" fill="black"/>
<path d="M117.772 30.8782H112.954V35.6703H117.772V30.8782Z" fill="black"/>
<path d="M122.59 30.8782H117.772V35.6703H122.59V30.8782Z" fill="black"/>
<path d="M132.227 30.8782H127.408V35.6703H132.227V30.8782Z" fill="black"/>
<path d="M16.5918 35.6703H11.7737V40.4624H16.5918V35.6703Z" fill="black"/>
<path d="M45.5005 35.6703H40.6824V40.4624H45.5005V35.6703Z" fill="black"/>
<path d="M55.1367 35.6703H50.3186V40.4624H55.1367V35.6703Z" fill="black"/>
<path d="M69.591 35.6703H64.7729V40.4624H69.591V35.6703Z" fill="black"/>
<path d="M74.4092 35.6703H69.591V40.4624H74.4092V35.6703Z" fill="black"/>
<path d="M79.2273 35.6703H74.4092V40.4624H79.2273V35.6703Z" fill="black"/>
<path d="M84.0454 35.6703H79.2273V40.4624H84.0454V35.6703Z" fill="black"/>
<path d="M88.8635 35.6703H84.0454V40.4624H88.8635V35.6703Z" fill="black"/>
<path d="M103.318 35.6703H98.4997V40.4624H103.318V35.6703Z" fill="black"/>
<path d="M132.227 35.6703H127.408V40.4624H132.227V35.6703Z" fill="black"/>
<path d="M16.5918 40.4624H11.7737V45.2544H16.5918V40.4624Z" fill="black"/>
<path d="M21.4099 40.4624H16.5918V45.2544H21.4099V40.4624Z" fill="black"/>
<path d="M26.228 40.4624H21.4099V45.2544H26.228V40.4624Z" fill="black"/>
<path d="M31.0461 40.4624H26.228V45.2544H31.0461V40.4624Z" fill="black"/>
<path d="M35.8642 40.4624H31.0461V45.2544H35.8642V40.4624Z" fill="black"/>
<path d="M40.6824 40.4624H35.8642V45.2544H40.6824V40.4624Z" fill="black"/>
<path d="M45.5005 40.4624H40.6824V45.2544H45.5005V40.4624Z" fill="black"/>
<path d="M55.1367 40.4624H50.3186V45.2544H55.1367V40.4624Z" fill="black"/>
<path d="M64.7729 40.4624H59.9548V45.2544H64.7729V40.4624Z" fill="black"/>
<path d="M74.4092 40.4624H69.591V45.2544H74.4092V40.4624Z" fill="black"/>
<path d="M84.0454 40.4624H79.2273V45.2544H84.0454V40.4624Z" fill="black"/>
<path d="M93.6816 40.4624H88.8635V45.2544H93.6816V40.4624Z" fill="black"/>
<path d="M103.318 40.4624H98.4997V45.2544H103.318V40.4624Z" fill="black"/>
<path d="M108.136 40.4624H103.318V45.2544H108.136V40.4624Z" fill="black"/>
<path d="M112.954 40.4624H108.136V45.2544H112.954V40.4624Z" fill="black"/>
<path d="M117.772 40.4624H112.954V45.2544H117.772V40.4624Z" fill="black"/>
<path d="M122.59 40.4624H117.772V45.2544H122.59V40.4624Z" fill="black"/>
<path d="M127.408 40.4624H122.59V45.2544H127.408V40.4624Z" fill="black"/>
<path d="M132.227 40.4624H127.408V45.2544H132.227V40.4624Z" fill="black"/>
<path d="M55.1367 45.2544H50.3186V50.0465H55.1367V45.2544Z" fill="black"/>
<path d="M59.9548 45.2544H55.1367V50.0465H59.9548V45.2544Z" fill="black"/>
<path d="M69.591 45.2544H64.7729V50.0465H69.591V45.2544Z" fill="black"/>
<path d="M84.0454 45.2544H79.2273V50.0465H84.0454V45.2544Z" fill="black"/>
<path d="M93.6816 45.2544H88.8635V50.0465H93.6816V45.2544Z" fill="black"/>
<path d="M16.5918 50.0465H11.7737V54.8386H16.5918V50.0465Z" fill="black"/>
<path d="M26.228 50.0465H21.4099V54.8386H26.228V50.0465Z" fill="black"/>
<path d="M31.0461 50.0465H26.228V54.8386H31.0461V50.0465Z" fill="black"/>
<path d="M35.8642 50.0465H31.0461V54.8386H35.8642V50.0465Z" fill="black"/>
<path d="M40.6824 50.0465H35.8642V54.8386H40.6824V50.0465Z" fill="black"/>
<path d="M45.5005 50.0465H40.6824V54.8386H45.5005V50.0465Z" fill="black"/>
<path d="M74.4092 50.0465H69.591V54.8386H74.4092V50.0465Z" fill="black"/>
<path d="M79.2273 50.0465H74.4092V54.8386H79.2273V50.0465Z" fill="black"/>
<path d="M84.0454 50.0465H79.2273V54.8386H84.0454V50.0465Z" fill="black"/>
<path d="M103.318 50.0465H98.4997V54.8386H103.318V50.0465Z" fill="black"/>
<path d="M108.136 50.0465H103.318V54.8386H108.136V50.0465Z" fill="black"/>
<path d="M112.954 50.0465H108.136V54.8386H112.954V50.0465Z" fill="black"/>
<path d="M117.772 50.0465H112.954V54.8386H117.772V50.0465Z" fill="black"/>
<path d="M122.59 50.0465H117.772V54.8386H122.59V50.0465Z" fill="black"/>
<path d="M16.5918 54.8386H11.7737V59.6306H16.5918V54.8386Z" fill="black"/>
<path d="M26.228 54.8386H21.4099V59.6306H26.228V54.8386Z" fill="black"/>
<path d="M31.0461 54.8386H26.228V59.6306H31.0461V54.8386Z" fill="black"/>
<path d="M55.1367 54.8386H50.3186V59.6306H55.1367V54.8386Z" fill="black"/>
<path d="M64.7729 54.8386H59.9548V59.6306H64.7729V54.8386Z" fill="black"/>
<path d="M69.591 54.8386H64.7729V59.6306H69.591V54.8386Z" fill="black"/>
<path d="M74.4092 54.8386H69.591V59.6306H74.4092V54.8386Z" fill="black"/>
<path d="M79.2273 54.8386H74.4092V59.6306H79.2273V54.8386Z" fill="black"/>
<path d="M84.0454 54.8386H79.2273V59.6306H84.0454V54.8386Z" fill="black"/>
<path d="M108.136 54.8386H103.318V59.6306H108.136V54.8386Z" fill="black"/>
<path d="M127.408 54.8386H122.59V59.6306H127.408V54.8386Z" fill="black"/>
<path d="M26.228 59.6306H21.4099V64.4227H26.228V59.6306Z" fill="black"/>
<path d="M31.0461 59.6306H26.228V64.4227H31.0461V59.6306Z" fill="black"/>
<path d="M35.8642 59.6306H31.0461V64.4227H35.8642V59.6306Z" fill="black"/>
<path d="M45.5005 59.6306H40.6824V64.4227H45.5005V59.6306Z" fill="black"/>
<path d="M50.3186 59.6306H45.5005V64.4227H50.3186V59.6306Z" fill="black"/>
<path d="M69.591 59.6306H64.7729V64.4227H69.591V59.6306Z" fill="black"/>
<path d="M79.2273 59.6306H74.4092V64.4227H79.2273V59.6306Z" fill="black"/>
<path d="M88.8635 59.6306H84.0454V64.4227H88.8635V59.6306Z" fill="black"/>
<path d="M93.6816 59.6306H88.8635V64.4227H93.6816V59.6306Z" fill="black"/>
<path d="M98.4997 59.6306H93.6816V64.4227H98.4997V59.6306Z" fill="black"/>
<path d="M108.136 59.6306H103.318V64.4227H108.136V59.6306Z" fill="black"/>
<path d="M112.954 59.6306H108.136V64.4227H112.954V59.6306Z" fill="black"/>
<path d="M117.772 59.6306H112.954V64.4227H117.772V59.6306Z" fill="black"/>
<path d="M127.408 59.6306H122.59V64.4227H127.408V59.6306Z" fill="black"/>
<path d="M132.227 59.6306H127.408V64.4227H132.227V59.6306Z" fill="black"/>
<path d="M31.0461 64.4227H26.228V69.2148H31.0461V64.4227Z" fill="black"/>
<path d="M35.8642 64.4227H31.0461V69.2148H35.8642V64.4227Z" fill="black"/>
<path d="M50.3186 64.4227H45.5005V69.2148H50.3186V64.4227Z" fill="black"/>
<path d="M59.9548 64.4227H55.1367V69.2148H59.9548V64.4227Z" fill="black"/>
<path d="M64.7729 64.4227H59.9548V69.2148H64.7729V64.4227Z" fill="black"/>
<path d="M108.136 64.4227H103.318V69.2148H108.136V64.4227Z" fill="black"/>
<path d="M112.954 64.4227H108.136V69.2148H112.954V64.4227Z" fill="black"/>
<path d="M132.227 64.4227H127.408V69.2148H132.227V64.4227Z" fill="black"/>
<path d="M21.4099 69.2148H16.5918V74.0069H21.4099V69.2148Z" fill="black"/>
<path d="M31.0461 69.2148H26.228V74.0069H31.0461V69.2148Z" fill="black"/>
<path d="M45.5005 69.2148H40.6824V74.0069H45.5005V69.2148Z" fill="black"/>
<path d="M50.3186 69.2148H45.5005V74.0069H50.3186V69.2148Z" fill="black"/>
<path d="M59.9548 69.2148H55.1367V74.0069H59.9548V69.2148Z" fill="black"/>
<path d="M74.4092 69.2148H69.591V74.0069H74.4092V69.2148Z" fill="black"/>
<path d="M79.2273 69.2148H74.4092V74.0069H79.2273V69.2148Z" fill="black"/>
<path d="M84.0454 69.2148H79.2273V74.0069H84.0454V69.2148Z" fill="black"/>
<path d="M98.4997 69.2148H93.6816V74.0069H98.4997V69.2148Z" fill="black"/>
<path d="M103.318 69.2148H98.4997V74.0069H103.318V69.2148Z" fill="black"/>
<path d="M112.954 69.2148H108.136V74.0069H112.954V69.2148Z" fill="black"/>
<path d="M122.59 69.2148H117.772V74.0069H122.59V69.2148Z" fill="black"/>
<path d="M127.408 69.2148H122.59V74.0069H127.408V69.2148Z" fill="black"/>
<path d="M132.227 69.2148H127.408V74.0069H132.227V69.2148Z" fill="black"/>
<path d="M16.5918 74.0069H11.7737V78.7989H16.5918V74.0069Z" fill="black"/>
<path d="M21.4099 74.0069H16.5918V78.7989H21.4099V74.0069Z" fill="black"/>
<path d="M35.8642 74.0069H31.0461V78.7989H35.8642V74.0069Z" fill="black"/>
<path d="M40.6824 74.0069H35.8642V78.7989H40.6824V74.0069Z" fill="black"/>
<path d="M50.3186 74.0069H45.5005V78.7989H50.3186V74.0069Z" fill="black"/>
<path d="M55.1367 74.0069H50.3186V78.7989H55.1367V74.0069Z" fill="black"/>
<path d="M79.2273 74.0069H74.4092V78.7989H79.2273V74.0069Z" fill="black"/>
<path d="M93.6816 74.0069H88.8635V78.7989H93.6816V74.0069Z" fill="black"/>
<path d="M108.136 74.0069H103.318V78.7989H108.136V74.0069Z" fill="black"/>
<path d="M117.772 74.0069H112.954V78.7989H117.772V74.0069Z" fill="black"/>
<path d="M127.408 74.0069H122.59V78.7989H127.408V74.0069Z" fill="black"/>
<path d="M16.5918 78.7989H11.7737V83.591H16.5918V78.7989Z" fill="black"/>
<path d="M35.8642 78.7989H31.0461V83.591H35.8642V78.7989Z" fill="black"/>
<path d="M45.5005 78.7989H40.6824V83.591H45.5005V78.7989Z" fill="black"/>
<path d="M59.9548 78.7989H55.1367V83.591H59.9548V78.7989Z" fill="black"/>
<path d="M69.591 78.7989H64.7729V83.591H69.591V78.7989Z" fill="black"/>
<path d="M74.4092 78.7989H69.591V83.591H74.4092V78.7989Z" fill="black"/>
<path d="M84.0454 78.7989H79.2273V83.591H84.0454V78.7989Z" fill="black"/>
<path d="M88.8635 78.7989H84.0454V83.591H88.8635V78.7989Z" fill="black"/>
<path d="M98.4997 78.7989H93.6816V83.591H98.4997V78.7989Z" fill="black"/>
<path d="M103.318 78.7989H98.4997V83.591H103.318V78.7989Z" fill="black"/>
<path d="M108.136 78.7989H103.318V83.591H108.136V78.7989Z" fill="black"/>
<path d="M112.954 78.7989H108.136V83.591H112.954V78.7989Z" fill="black"/>
<path d="M117.772 78.7989H112.954V83.591H117.772V78.7989Z" fill="black"/>
<path d="M127.408 78.7989H122.59V83.591H127.408V78.7989Z" fill="black"/>
<path d="M132.227 78.7989H127.408V83.591H132.227V78.7989Z" fill="black"/>
<path d="M16.5918 83.591H11.7737V88.3831H16.5918V83.591Z" fill="black"/>
<path d="M31.0461 83.591H26.228V88.3831H31.0461V83.591Z" fill="black"/>
<path d="M35.8642 83.591H31.0461V88.3831H35.8642V83.591Z" fill="black"/>
<path d="M55.1367 83.591H50.3186V88.3831H55.1367V83.591Z" fill="black"/>
<path d="M59.9548 83.591H55.1367V88.3831H59.9548V83.591Z" fill="black"/>
<path d="M69.591 83.591H64.7729V88.3831H69.591V83.591Z" fill="black"/>
<path d="M84.0454 83.591H79.2273V88.3831H84.0454V83.591Z" fill="black"/>
<path d="M93.6816 83.591H88.8635V88.3831H93.6816V83.591Z" fill="black"/>
<path d="M98.4997 83.591H93.6816V88.3831H98.4997V83.591Z" fill="black"/>
<path d="M103.318 83.591H98.4997V88.3831H103.318V83.591Z" fill="black"/>
<path d="M108.136 83.591H103.318V88.3831H108.136V83.591Z" fill="black"/>
<path d="M112.954 83.591H108.136V88.3831H112.954V83.591Z" fill="black"/>
<path d="M132.227 83.591H127.408V88.3831H132.227V83.591Z" fill="black"/>
<path d="M16.5918 88.3831H11.7737V93.1751H16.5918V88.3831Z" fill="black"/>
<path d="M26.228 88.3831H21.4099V93.1751H26.228V88.3831Z" fill="black"/>
<path d="M35.8642 88.3831H31.0461V93.1751H35.8642V88.3831Z" fill="black"/>
<path d="M40.6824 88.3831H35.8642V93.1751H40.6824V88.3831Z" fill="black"/>
<path d="M45.5005 88.3831H40.6824V93.1751H45.5005V88.3831Z" fill="black"/>
<path d="M50.3186 88.3831H45.5005V93.1751H50.3186V88.3831Z" fill="black"/>
<path d="M55.1367 88.3831H50.3186V93.1751H55.1367V88.3831Z" fill="black"/>
<path d="M64.7729 88.3831H59.9548V93.1751H64.7729V88.3831Z" fill="black"/>
<path d="M69.591 88.3831H64.7729V93.1751H69.591V88.3831Z" fill="black"/>
<path d="M74.4092 88.3831H69.591V93.1751H74.4092V88.3831Z" fill="black"/>
<path d="M79.2273 88.3831H74.4092V93.1751H79.2273V88.3831Z" fill="black"/>
<path d="M84.0454 88.3831H79.2273V93.1751H84.0454V88.3831Z" fill="black"/>
<path d="M93.6816 88.3831H88.8635V93.1751H93.6816V88.3831Z" fill="black"/>
<path d="M98.4997 88.3831H93.6816V93.1751H98.4997V88.3831Z" fill="black"/>
<path d="M103.318 88.3831H98.4997V93.1751H103.318V88.3831Z" fill="black"/>
<path d="M108.136 88.3831H103.318V93.1751H108.136V88.3831Z" fill="black"/>
<path d="M112.954 88.3831H108.136V93.1751H112.954V88.3831Z" fill="black"/>
<path d="M122.59 88.3831H117.772V93.1751H122.59V88.3831Z" fill="black"/>
<path d="M55.1367 93.1751H50.3186V97.9672H55.1367V93.1751Z" fill="black"/>
<path d="M64.7729 93.1751H59.9548V97.9672H64.7729V93.1751Z" fill="black"/>
<path d="M74.4092 93.1751H69.591V97.9672H74.4092V93.1751Z" fill="black"/>
<path d="M84.0454 93.1751H79.2273V97.9672H84.0454V93.1751Z" fill="black"/>
<path d="M88.8635 93.1751H84.0454V97.9672H88.8635V93.1751Z" fill="black"/>
<path d="M93.6816 93.1751H88.8635V97.9672H93.6816V93.1751Z" fill="black"/>
<path d="M112.954 93.1751H108.136V97.9672H112.954V93.1751Z" fill="black"/>
<path d="M117.772 93.1751H112.954V97.9672H117.772V93.1751Z" fill="black"/>
<path d="M16.5918 97.9672H11.7737V102.759H16.5918V97.9672Z" fill="black"/>
<path d="M21.4099 97.9672H16.5918V102.759H21.4099V97.9672Z" fill="black"/>
<path d="M26.228 97.9672H21.4099V102.759H26.228V97.9672Z" fill="black"/>
<path d="M31.0461 97.9672H26.228V102.759H31.0461V97.9672Z" fill="black"/>
<path d="M35.8642 97.9672H31.0461V102.759H35.8642V97.9672Z" fill="black"/>
<path d="M40.6824 97.9672H35.8642V102.759H40.6824V97.9672Z" fill="black"/>
<path d="M45.5005 97.9672H40.6824V102.759H45.5005V97.9672Z" fill="black"/>
<path d="M59.9548 97.9672H55.1367V102.759H59.9548V97.9672Z" fill="black"/>
<path d="M64.7729 97.9672H59.9548V102.759H64.7729V97.9672Z" fill="black"/>
<path d="M84.0454 97.9672H79.2273V102.759H84.0454V97.9672Z" fill="black"/>
<path d="M93.6816 97.9672H88.8635V102.759H93.6816V97.9672Z" fill="black"/>
<path d="M103.318 97.9672H98.4997V102.759H103.318V97.9672Z" fill="black"/>
<path d="M112.954 97.9672H108.136V102.759H112.954V97.9672Z" fill="black"/>
<path d="M122.59 97.9672H117.772V102.759H122.59V97.9672Z" fill="black"/>
<path d="M127.408 97.9672H122.59V102.759H127.408V97.9672Z" fill="black"/>
<path d="M132.227 97.9672H127.408V102.759H132.227V97.9672Z" fill="black"/>
<path d="M16.5918 102.759H11.7737V107.551H16.5918V102.759Z" fill="black"/>
<path d="M45.5005 102.759H40.6824V107.551H45.5005V102.759Z" fill="black"/>
<path d="M55.1367 102.759H50.3186V107.551H55.1367V102.759Z" fill="black"/>
<path d="M69.591 102.759H64.7729V107.551H69.591V102.759Z" fill="black"/>
<path d="M74.4092 102.759H69.591V107.551H74.4092V102.759Z" fill="black"/>
<path d="M84.0454 102.759H79.2273V107.551H84.0454V102.759Z" fill="black"/>
<path d="M93.6816 102.759H88.8635V107.551H93.6816V102.759Z" fill="black"/>
<path d="M112.954 102.759H108.136V107.551H112.954V102.759Z" fill="black"/>
<path d="M117.772 102.759H112.954V107.551H117.772V102.759Z" fill="black"/>
<path d="M127.408 102.759H122.59V107.551H127.408V102.759Z" fill="black"/>
<path d="M132.227 102.759H127.408V107.551H132.227V102.759Z" fill="black"/>
<path d="M16.5918 107.551H11.7737V112.343H16.5918V107.551Z" fill="black"/>
<path d="M26.228 107.551H21.4099V112.343H26.228V107.551Z" fill="black"/>
<path d="M31.0461 107.551H26.228V112.343H31.0461V107.551Z" fill="black"/>
<path d="M35.8642 107.551H31.0461V112.343H35.8642V107.551Z" fill="black"/>
<path d="M45.5005 107.551H40.6824V112.343H45.5005V107.551Z" fill="black"/>
<path d="M55.1367 107.551H50.3186V112.343H55.1367V107.551Z" fill="black"/>
<path d="M59.9548 107.551H55.1367V112.343H59.9548V107.551Z" fill="black"/>
<path d="M79.2273 107.551H74.4092V112.343H79.2273V107.551Z" fill="black"/>
<path d="M84.0454 107.551H79.2273V112.343H84.0454V107.551Z" fill="black"/>
<path d="M88.8635 107.551H84.0454V112.343H88.8635V107.551Z" fill="black"/>
<path d="M93.6816 107.551H88.8635V112.343H93.6816V107.551Z" fill="black"/>
<path d="M98.4997 107.551H93.6816V112.343H98.4997V107.551Z" fill="black"/>
<path d="M103.318 107.551H98.4997V112.343H103.318V107.551Z" fill="black"/>
<path d="M108.136 107.551H103.318V112.343H108.136V107.551Z" fill="black"/>
<path d="M112.954 107.551H108.136V112.343H112.954V107.551Z" fill="black"/>
<path d="M122.59 107.551H117.772V112.343H122.59V107.551Z" fill="black"/>
<path d="M16.5918 112.343H11.7737V117.135H16.5918V112.343Z" fill="black"/>
<path d="M26.228 112.343H21.4099V117.135H26.228V112.343Z" fill="black"/>
<path d="M31.0461 112.343H26.228V117.135H31.0461V112.343Z" fill="black"/>
<path d="M35.8642 112.343H31.0461V117.135H35.8642V112.343Z" fill="black"/>
<path d="M45.5005 112.343H40.6824V117.135H45.5005V112.343Z" fill="black"/>
<path d="M55.1367 112.343H50.3186V117.135H55.1367V112.343Z" fill="black"/>
<path d="M59.9548 112.343H55.1367V117.135H59.9548V112.343Z" fill="black"/>
<path d="M69.591 112.343H64.7729V117.135H69.591V112.343Z" fill="black"/>
<path d="M74.4092 112.343H69.591V117.135H74.4092V112.343Z" fill="black"/>
<path d="M79.2273 112.343H74.4092V117.135H79.2273V112.343Z" fill="black"/>
<path d="M98.4997 112.343H93.6816V117.135H98.4997V112.343Z" fill="black"/>
<path d="M103.318 112.343H98.4997V117.135H103.318V112.343Z" fill="black"/>
<path d="M112.954 112.343H108.136V117.135H112.954V112.343Z" fill="black"/>
<path d="M117.772 112.343H112.954V117.135H117.772V112.343Z" fill="black"/>
<path d="M122.59 112.343H117.772V117.135H122.59V112.343Z" fill="black"/>
<path d="M127.408 112.343H122.59V117.135H127.408V112.343Z" fill="black"/>
<path d="M132.227 112.343H127.408V117.135H132.227V112.343Z" fill="black"/>
<path d="M16.5918 117.135H11.7737V121.928H16.5918V117.135Z" fill="black"/>
<path d="M26.228 117.135H21.4099V121.928H26.228V117.135Z" fill="black"/>
<path d="M31.0461 117.135H26.228V121.928H31.0461V117.135Z" fill="black"/>
<path d="M35.8642 117.135H31.0461V121.928H35.8642V117.135Z" fill="black"/>
<path d="M45.5005 117.135H40.6824V121.928H45.5005V117.135Z" fill="black"/>
<path d="M55.1367 117.135H50.3186V121.928H55.1367V117.135Z" fill="black"/>
<path d="M64.7729 117.135H59.9548V121.928H64.7729V117.135Z" fill="black"/>
<path d="M84.0454 117.135H79.2273V121.928H84.0454V117.135Z" fill="black"/>
<path d="M88.8635 117.135H84.0454V121.928H88.8635V117.135Z" fill="black"/>
<path d="M93.6816 117.135H88.8635V121.928H93.6816V117.135Z" fill="black"/>
<path d="M117.772 117.135H112.954V121.928H117.772V117.135Z" fill="black"/>
<path d="M122.59 117.135H117.772V121.928H122.59V117.135Z" fill="black"/>
<path d="M132.227 117.135H127.408V121.928H132.227V117.135Z" fill="black"/>
<path d="M16.5918 121.928H11.7737V126.72H16.5918V121.928Z" fill="black"/>
<path d="M45.5005 121.928H40.6824V126.72H45.5005V121.928Z" fill="black"/>
<path d="M69.591 121.928H64.7729V126.72H69.591V121.928Z" fill="black"/>
<path d="M84.0454 121.928H79.2273V126.72H84.0454V121.928Z" fill="black"/>
<path d="M88.8635 121.928H84.0454V126.72H88.8635V121.928Z" fill="black"/>
<path d="M93.6816 121.928H88.8635V126.72H93.6816V121.928Z" fill="black"/>
<path d="M98.4997 121.928H93.6816V126.72H98.4997V121.928Z" fill="black"/>
<path d="M108.136 121.928H103.318V126.72H108.136V121.928Z" fill="black"/>
<path d="M112.954 121.928H108.136V126.72H112.954V121.928Z" fill="black"/>
<path d="M117.772 121.928H112.954V126.72H117.772V121.928Z" fill="black"/>
<path d="M132.227 121.928H127.408V126.72H132.227V121.928Z" fill="black"/>
<path d="M16.5918 126.72H11.7737V131.512H16.5918V126.72Z" fill="black"/>
<path d="M21.4099 126.72H16.5918V131.512H21.4099V126.72Z" fill="black"/>
<path d="M26.228 126.72H21.4099V131.512H26.228V126.72Z" fill="black"/>
<path d="M31.0461 126.72H26.228V131.512H31.0461V126.72Z" fill="black"/>
<path d="M35.8642 126.72H31.0461V131.512H35.8642V126.72Z" fill="black"/>
<path d="M40.6824 126.72H35.8642V131.512H40.6824V126.72Z" fill="black"/>
<path d="M45.5005 126.72H40.6824V131.512H45.5005V126.72Z" fill="black"/>
<path d="M55.1367 126.72H50.3186V131.512H55.1367V126.72Z" fill="black"/>
<path d="M59.9548 126.72H55.1367V131.512H59.9548V126.72Z" fill="black"/>
<path d="M64.7729 126.72H59.9548V131.512H64.7729V126.72Z" fill="black"/>
<path d="M74.4092 126.72H69.591V131.512H74.4092V126.72Z" fill="black"/>
<path d="M79.2273 126.72H74.4092V131.512H79.2273V126.72Z" fill="black"/>
<path d="M84.0454 126.72H79.2273V131.512H84.0454V126.72Z" fill="black"/>
<path d="M103.318 126.72H98.4997V131.512H103.318V126.72Z" fill="black"/>
<path d="M108.136 126.72H103.318V131.512H108.136V126.72Z" fill="black"/>
<path d="M112.954 126.72H108.136V131.512H112.954V126.72Z" fill="black"/>
<path d="M117.772 126.72H112.954V131.512H117.772V126.72Z" fill="black"/>
<path d="M122.59 126.72H117.772V131.512H122.59V126.72Z" fill="black"/>
<path d="M127.408 126.72H122.59V131.512H127.408V126.72Z" fill="black"/>
<path d="M132.227 126.72H127.408V131.512H132.227V126.72Z" fill="black"/>
</svg>
