<svg width="25" height="25" viewBox="0 0 25 25" fill="none" xmlns="http://www.w3.org/2000/svg">
<path d="M23.75 12.25C23.75 18.6013 18.6013 23.75 12.25 23.75M23.75 12.25C23.75 5.89873 18.6013 0.75 12.25 0.75M23.75 12.25H0.75M12.25 23.75C5.89873 23.75 0.75 18.6013 0.75 12.25M12.25 23.75C15.1265 20.6009 16.7612 16.5142 16.85 12.25C16.7612 7.98584 15.1265 3.89911 12.25 0.75M12.25 23.75C9.37353 20.6009 7.73884 16.5142 7.65 12.25C7.73884 7.98584 9.37353 3.89911 12.25 0.75M0.75 12.25C0.75 5.89873 5.89873 0.75 12.25 0.75" stroke="white" stroke-width="1.5" stroke-linecap="round" stroke-linejoin="round"/>
</svg>
