<svg width="24" height="24" viewBox="0 0 24 24" fill="none" xmlns="http://www.w3.org/2000/svg">
<path d="M0.0168356 11.9306C0.0168356 14.0261 0.565118 16.0888 1.60461 17.8954L1.64671 17.9686L-5.87106e-06 24L6.15554 22.3812L6.22572 22.4196C7.96132 23.3694 9.92803 23.8714 11.9116 23.8724C18.4751 23.8724 23.8129 18.5204 23.8157 11.9409C23.8166 8.75295 22.5806 5.75459 20.3332 3.49949C18.0868 1.24439 15.0974 0.000938453 11.9163 0C5.35745 0 0.0196425 5.352 0.0168356 11.9306ZM11.92 1.64605C14.6595 1.64699 17.2353 2.7187 19.1721 4.66223C21.1089 6.60577 22.1746 9.19027 22.1736 11.939C22.1708 17.611 17.5694 22.2244 11.9153 22.2244C10.0702 22.2235 8.26447 21.728 6.68979 20.7905L6.39507 20.615L2.33347 21.683L3.41881 17.7105L3.22607 17.4036C2.19874 15.766 1.65701 13.8732 1.65794 11.9296C1.65981 6.25854 6.26408 1.64417 11.92 1.64417V1.64605Z" fill="white"/>
<path d="M8.89228 6.85821C8.66585 6.35333 8.42727 6.343 8.21207 6.33456C8.03617 6.32705 7.83407 6.32799 7.63291 6.32799C7.43175 6.32799 7.10334 6.404 6.82639 6.70712C6.54945 7.01024 5.76819 7.74411 5.76819 9.23625C5.76819 10.7284 6.85166 12.1699 7.00229 12.3726C7.15387 12.5743 9.09438 15.7341 12.167 16.9494C14.7213 17.9592 15.2406 17.7583 15.7954 17.7077C16.3493 17.657 17.5843 16.9747 17.836 16.2662C18.0877 15.5586 18.0877 14.9514 18.0129 14.8247C17.9371 14.6981 17.7359 14.622 17.4337 14.4709C17.1315 14.3189 15.6448 13.586 15.3678 13.4846C15.0909 13.3833 14.8888 13.3335 14.6876 13.6367C14.4864 13.9398 13.9073 14.623 13.7305 14.8247C13.5546 15.0274 13.3777 15.0528 13.0755 14.9008C12.7733 14.7487 11.7993 14.4287 10.6438 13.3955C9.74464 12.5912 9.13835 11.5993 8.96152 11.2952C8.78562 10.9921 8.9428 10.8279 9.09438 10.6768C9.23004 10.5407 9.39659 10.323 9.54816 10.1456C9.6988 9.96825 9.74932 9.8425 9.85037 9.63979C9.95142 9.43708 9.90089 9.26065 9.82511 9.10863C9.74932 8.9566 9.16174 7.45695 8.89321 6.85728L8.89228 6.85821Z" fill="white"/>
</svg>
